<svg width="63" height="80" viewBox="0 0 63 80" fill="none" xmlns="http://www.w3.org/2000/svg">
<g clip-path="url(#clip0_52_1124)">
<path d="M28.3039 0.0892219C27.8361 0.259313 27.4325 0.569574 27.1486 0.978054C27.0245 1.00573 26.9218 1.09189 26.8727 1.2093C26.4415 1.85171 26.1035 2.55216 25.8682 3.28919C24.1348 7.61822 24.1526 12.107 24.4106 16.6938L24.295 17.3071C24.295 17.7781 24.1883 18.2938 24.1883 18.8004C24.1883 19.3071 24.1883 19.8317 24.1352 20.3557C24.0941 20.8352 24.0941 21.3169 24.1352 21.7959C24.1084 22.2406 24.1624 22.6861 24.295 23.1116C24.2446 24.1915 24.12 25.2665 23.9218 26.3294C23.6977 27.3799 23.4008 28.4133 23.033 29.4227L22.9441 29.4227C22.9441 29.1562 22.8285 28.8981 22.7754 28.6584L22.7749 28.658C22.5696 27.7597 22.2307 26.8968 21.7705 26.0982C21.5709 25.7335 21.3294 25.3933 21.0504 25.0848C20.7388 24.8585 20.4419 24.612 20.1615 24.3473C19.2986 23.9111 18.2915 23.8594 17.3883 24.2049C17.0472 24.4482 16.7928 24.7942 16.6633 25.1928C16.5334 25.591 16.5352 26.021 16.6682 26.4183C16.6459 26.4996 16.6311 26.583 16.624 26.667C16.6271 27.1929 16.7142 27.7152 16.8816 28.2138C16.9883 28.7384 17.0682 29.3692 17.1307 29.9116C16.9892 29.9611 16.8432 29.9968 16.695 30.0182C16.5704 30.845 15.9307 32.125 16.2151 32.8981C16.0454 33.0575 15.8852 33.2267 15.7352 33.4048C15.8758 33.7718 16.0361 34.1307 16.2151 34.4803L15.7352 34.6669C15.47 37.0222 14.982 39.3468 14.2771 41.6093C12.9436 45.8669 14.2771 49.0048 16.2949 52.8093C17.415 54.9249 18.8017 56.916 20.0994 58.9428C19.6784 59.1249 19.2931 59.3807 18.9614 59.6981C19.2275 60.0397 19.4655 60.4026 19.6726 60.7825C19.6972 60.8178 19.7311 60.8455 19.7704 60.8624C20.1382 61.5678 20.4619 62.295 20.7396 63.0406C21.6284 65.3785 21.6994 67.8495 21.7708 70.3473C21.7708 71.6808 21.8865 73.0138 21.824 74.3117C21.6882 75.421 21.4771 76.5197 21.1927 77.6005C21.1824 77.671 21.1824 77.7429 21.1927 77.8139C21.1396 79.3871 24.6061 79.7429 26.7396 79.8495C29.3838 79.9821 32.0328 79.9821 34.677 79.8495C39.3614 79.6093 44.3391 77.7786 48.6325 76.116L48.6329 76.116C50.8213 75.2477 53.1495 74.7839 55.5039 74.7472C55.5624 74.7602 55.6231 74.7602 55.6816 74.7472L55.7883 74.7472C55.545 74.3638 55.3958 73.928 55.3525 73.4758C55.4057 72.9423 55.4325 72.4004 55.4325 71.8491C55.4325 69.1826 55.0146 66.5156 54.9615 63.9379C54.9615 62.6402 55.0235 61.3691 54.8816 60.0803C54.7838 59.1914 54.7481 57.4138 53.6726 57.0936C53.2566 56.9343 52.811 56.8646 52.3659 56.8892C52.7748 55.2182 49.1303 56.507 48.2061 56.516L46.6949 56.516L46.3481 56.516L45.9302 56.516L45.9307 56.516C45.7945 56.5044 45.6579 56.5044 45.5217 56.516L44.0815 56.516C43.8744 56.5026 43.6663 56.5026 43.4592 56.516C44.9168 53.1382 47.3435 50.1338 47.7083 46.3825C48.1561 45.4334 48.3722 44.3914 48.3396 43.3427C48.1739 40.9061 47.757 38.4931 47.0949 36.1427C46.8029 34.8833 46.4011 33.6521 45.8949 32.4624C45.2993 31.2003 44.7569 31.4668 43.7703 31.0221C42.5347 29.6177 42.4547 27.2266 40.8015 25.9998L40.8015 26.0003C39.8399 25.4463 38.7355 25.1896 37.6283 25.2624C36.997 23.5556 34.8814 19.7601 32.4992 20.3467L32.4992 19.8846L32.6501 18.5958C32.7367 17.7958 32.7546 16.99 32.7037 16.1869C32.6903 15.9235 32.6207 15.6655 32.4992 15.4316C32.343 15.0704 32.2327 14.6909 32.1702 14.3025C31.859 12.6316 31.6988 10.9356 31.6903 9.23603C31.8184 8.10523 31.722 6.96014 31.4059 5.86689C31.3617 5.66332 31.2992 5.46377 31.2193 5.27136C31.2394 4.50349 31.2157 3.73478 31.1483 2.96907C31.151 2.71326 31.1332 2.4579 31.0948 2.20478C31.0242 1.76729 30.8229 1.36104 30.5171 1.04044C30.3242 0.642225 29.9943 0.326605 29.5876 0.152057C29.1809 -0.0224919 28.7251 -0.0448235 28.3037 0.0891102L28.3039 0.0892219ZM24.295 22.7384L24.295 23.1116C24.2687 22.9884 24.2687 22.8611 24.295 22.7384ZM53.5567 58.2938C53.8308 58.921 54.0076 59.5866 54.0813 60.267C54.5344 62.9336 54.188 65.6005 54.3835 68.267C54.4813 69.5916 54.7304 70.8893 54.7924 72.2139C54.7924 72.5161 54.8455 72.8541 54.8991 73.1916C54.8214 73.509 54.6156 73.7795 54.3304 73.9385C53.9866 74.0246 53.6353 74.0782 53.2813 74.0983C51.9232 74.2693 50.5839 74.5666 49.2813 74.9871C46.8634 75.5737 44.5433 76.4273 42.1701 77.1737C39.7968 77.9206 37.7254 78.8715 35.3344 79.2005L35.3349 79.2005C33.0147 79.3969 30.6803 79.334 28.3746 79.0139C27.055 78.9791 25.7523 78.7112 24.5259 78.2228C23.2371 77.6451 22.5259 77.8317 22.188 76.9608L22.188 76.9603C22.3898 75.996 22.488 75.0125 22.4813 74.0273C22.6005 71.3741 22.4634 68.7161 22.0724 66.0893C21.9585 64.738 21.7536 63.3956 21.459 62.0715C21.3759 61.7934 21.2688 61.5228 21.1393 61.2626C22.326 62.2295 23.8131 62.7514 25.3438 62.7385C27.988 62.8715 30.637 62.8715 33.2813 62.7385C37.9656 62.4983 42.9433 60.6675 47.2367 59.005L47.2371 59.005C49.0957 58.2706 51.0563 57.8268 53.0501 57.6893C53.2599 57.8384 53.426 58.0411 53.5304 58.2759L53.5567 58.2938ZM51.85 56.8893C50.4951 57.0612 49.1589 57.359 47.8589 57.7782C47.3968 57.8938 46.9701 58.0094 46.4901 58.1425L46.4901 58.1429C46.0562 58.1219 45.6303 58.0161 45.237 57.8317C45.1035 57.1116 46.6414 57.2451 47.5302 57.1027C48.419 57.0407 49.1659 56.9072 49.9659 56.7915C50.7654 56.6759 51.4497 56.3826 51.8497 56.8893L51.85 56.8893ZM39.6728 25.9293L39.7527 25.9293L39.6728 25.9293ZM36.055 23.2628C37.0952 24.6851 37.1751 26.1696 37.8327 27.7075C38.4372 29.0941 39.1037 31.2008 40.1971 32.2763C40.6502 32.7209 41.3882 33.2897 41.6725 32.4808C41.8413 32.0098 41.0234 31.7785 40.4015 31.512C40.0283 30.4276 39.5926 27.0673 41.1569 26.9612L41.1573 26.9603C41.4962 27.3844 41.7939 27.8397 42.0466 28.3205C42.9587 30.2795 43.7511 32.2919 44.4199 34.3472C44.802 35.3696 45.0864 36.6405 45.8864 37.4227C45.8783 36.3566 45.6516 35.3039 45.2199 34.3294C45.2908 34.116 45.3886 33.9026 45.469 33.6892L45.6377 34.2669C46.2154 36.258 46.8466 38.2402 47.2645 40.2758L47.264 40.2758C47.5475 41.3258 47.6997 42.4067 47.7176 43.4937C47.673 44.4535 47.4421 45.4669 47.4154 46.4445C47.1663 47.0758 46.8109 47.6977 46.5265 48.2222C45.5578 50.1775 44.331 52.1513 43.2288 54.1513C42.269 55.929 42.0645 57.8669 41.5043 59.7156L40.74 59.9647C38.4377 60.6937 36.2953 61.6624 33.9043 61.9914C31.5847 62.1879 29.2503 62.1254 26.9445 61.8048C25.6293 61.7682 24.3289 61.516 23.0954 61.058L22.882 60.9513C23.1485 59.9914 24.2776 59.2625 24.6597 58.2847C24.0111 58.437 23.4173 58.766 22.9445 59.2361C22.2485 59.2861 21.5766 58.9736 21.1664 58.4093C21.09 57.408 20.815 56.432 20.3574 55.5383C19.7619 54.6495 18.6597 54.2936 17.8418 53.6182L17.8422 53.6182C16.7842 52.7222 16.0762 51.4821 15.8422 50.1159C15.7346 49.0003 15.3953 47.9195 14.8467 46.9427C14.1623 45.8936 13.5221 45.3516 13.9579 44.0181C14.2869 42.9605 14.998 42.1069 15.2913 40.9958C15.5846 39.8846 15.8779 38.836 16.0913 37.7602C16.3047 36.6847 16.2338 35.6093 16.9802 34.711C17.7271 33.8132 18.5355 33.6356 18.998 32.6222L18.9976 32.6227C18.2792 33.3352 17.4395 33.9128 16.5177 34.3294C16.5257 33.8441 16.6739 33.3718 16.9445 32.9692C17.4154 32.3826 18.2154 32.5781 18.1976 31.7781C17.5891 31.891 17.0213 32.1642 16.5529 32.5692C16.3127 31.9026 17.2909 30.8624 17.2909 30.8624C18.3484 29.2981 21.5311 28.2401 19.2909 25.3601C19.3618 26.569 20.0199 27.0669 19.2909 28.2222L19.2909 28.2226C18.9105 28.761 18.4194 29.2128 17.8506 29.5472C17.7796 29.5512 17.7087 29.5512 17.6377 29.5472C17.5354 29.5222 17.4412 29.4735 17.3618 29.4048C17.2765 29.3012 17.2158 29.1798 17.1841 29.0494C17.0792 28.3927 17.0792 27.7235 17.1841 27.0668C17.2091 26.6463 17.4381 26.2646 17.7975 26.0449C18.1323 25.8641 18.4332 25.6266 18.6863 25.3427C17.9466 25.3048 17.2367 25.6382 16.7931 26.2315C16.6051 25.6798 16.7998 25.0699 17.273 24.7293C18.1283 24.531 19.0275 24.7163 19.7355 25.236C20.1355 25.7212 20.4373 26.2797 20.6243 26.8802C22.1087 31.3249 20.4288 35.769 20.6243 40.2139C20.4819 40.534 20.331 40.8451 20.1975 41.1648C19.0775 41.1648 18.8378 42.9871 19.8243 43.4671L20.1444 42.8805C20.0891 42.8305 20.0435 42.7702 20.0109 42.7028C20.3627 42.1327 20.6748 41.5384 20.9444 40.9251C21.1583 40.1952 21.4105 39.4773 21.6998 38.7738C21.9368 39.0693 22.2118 39.3322 22.5176 39.5559C22.2333 38.7827 21.6288 38.0358 21.8065 37.1826L21.8511 36.9871C21.9578 36.6849 22.1891 36.3648 22.269 36.0447L22.2685 36.0452C22.2975 35.6121 22.369 35.1835 22.4819 34.7648C22.6596 34.8898 22.8542 34.9885 23.0596 35.0581C22.8105 34.6769 22.6578 34.2407 22.6154 33.7871L22.7399 32.9961L22.9176 32.4273C23.2199 31.4849 23.2109 30.5161 23.5042 29.5385C23.7975 28.5604 24.2065 27.5559 24.473 26.6671C24.9261 25.1479 24.9779 23.5371 24.6243 21.9917L24.7578 21.7515L24.7574 21.7515C25.0203 21.2341 25.2029 20.6796 25.2998 20.1072C25.3118 19.4997 25.4257 18.8988 25.6377 18.3295C25.8359 18.1675 26.0203 17.9889 26.1886 17.796C26.2596 17.6005 25.9841 17.3251 26.1886 17.1827C26.7493 17.6742 27.4355 18.0005 28.1708 18.1251C27.7797 17.7871 26.544 17.2362 26.4731 16.6585C26.3753 15.9295 27.8508 16.9251 28.2508 16.8362C27.6285 16.4094 26.3575 15.7786 27.3084 15.0585C28.0994 14.4898 29.2552 14.8451 30.0727 15.1473C28.9258 14.1518 27.5392 14.4719 26.295 14.9965C24.9973 13.0411 25.1217 10.8456 25.5039 8.5608C25.753 7.08538 26.1173 5.62732 26.4816 4.17863L26.482 4.17819C26.7883 3.29247 27.0057 2.37819 27.1312 1.44962C27.2039 1.35408 27.2874 1.26747 27.3798 1.19158C27.6499 0.978185 27.9495 0.804526 28.2686 0.675955L28.3222 0.675955C28.0146 0.936663 27.8414 1.32193 27.8508 1.72506C27.8093 2.66703 28.1602 3.58449 28.82 4.25809C29.2905 4.60318 29.8303 4.84292 30.4022 4.96032C30.4825 5.10899 30.5776 5.24916 30.6865 5.37817C30.9821 5.90496 31.0798 6.51925 30.962 7.11166C30.899 7.35229 30.7379 7.55541 30.5178 7.67148C29.629 7.2804 28.0911 7.09379 27.9312 7.90272C28.2763 7.75808 28.6544 7.71209 29.0245 7.76924C30.1446 8.54022 30.9022 9.73438 31.1222 11.076C31.2909 11.9648 32.011 14.8715 31.2731 15.5737C31.5606 15.8465 31.732 16.2183 31.753 16.6139C31.2231 16.3929 30.6722 16.2264 30.1088 16.1161C29.6909 15.9563 28.1886 15.0139 28.082 15.8407C28.7008 15.9308 29.3012 16.1197 29.8597 16.4005C30.082 16.5072 30.3396 16.5781 30.562 16.6759C30.7959 16.775 31.0146 16.9067 31.2111 17.067C31.4762 17.2929 31.707 17.5567 31.8954 17.8496C31.9017 17.9188 31.8825 17.988 31.8423 18.0451C31.7338 18.171 31.5718 18.2371 31.4066 18.2228C30.9499 18.246 30.4923 18.1889 30.0553 18.0536C29.7798 17.9826 28.2241 17.1648 28.3485 17.796L28.349 17.796C28.8977 17.8898 29.4267 18.0759 29.9133 18.3473C30.0022 18.4009 30.0977 18.4429 30.1977 18.4715C30.5732 18.621 30.887 18.8938 31.0865 19.2451C31.2821 20.7205 31.9754 23.8496 32.3933 25.6629L32.5089 26.3205C32.5335 27.1112 32.85 27.8652 33.3977 28.4362L33.2821 28.4362C33.4397 28.4764 33.6067 28.4389 33.7317 28.3348C33.8567 28.2308 33.9241 28.0737 33.9134 27.9116C33.5223 27.6625 33.2643 27.9116 33.0777 27.6005C32.6866 26.7116 33.1844 24.934 33.1397 24.0452C33.0598 22.6318 33.0152 21.6983 34.5531 21.6184C35.1464 22.0631 35.6575 22.6072 36.0643 23.2273L36.055 23.2628ZM30.793 2.81825L30.793 4.00042C30.7398 4.18702 30.6595 4.37363 30.6153 4.56024C29.9845 4.82363 29.2555 4.63032 28.8376 4.08925C28.0733 3.12943 27.9487 0.320453 29.842 0.942396C30.6952 1.21829 30.8108 2.00043 30.7929 2.79154L30.793 2.81825Z" fill="white"/>
<path d="M32.296 32.7909C31.9139 33.4931 31.6737 34.8708 30.7317 35.1199C29.7892 35.369 29.1673 32.9601 28.8741 32.2222L28.6607 31.6887C29.025 32.9244 28.3852 34.2044 28.6607 35.4133C28.9361 36.6222 30.2428 36.3021 30.8919 37.2356L30.8914 37.2356C30.8776 36.4378 31.0544 35.6485 31.407 34.9333C31.878 34.3047 32.1838 33.5681 32.2959 32.7909L32.296 32.7909Z" fill="white"/>
<path d="M36.9713 36.3908L36.9713 36.2841C36.8539 35.256 37.0552 34.2162 37.5494 33.3064C38.2606 32.293 38.9182 32.764 39.8427 33.1729C39.9762 32.2841 38.465 31.3952 37.807 31.0841C37.3191 30.9176 36.8106 30.8189 36.2958 30.7908C35.7271 30.6841 35.5405 30.2042 34.9624 30.0886C34.3048 31.6354 36.0735 35.102 36.9713 36.3909L36.9713 36.3908Z" fill="white"/>
<path d="M44.6513 37.5476C44.8111 36.152 42.8735 36.2319 42.2066 35.423L41.9932 35.7431C42.4557 36.2409 43.9405 37.6007 44.6512 37.5476L44.6513 37.5476Z" fill="white"/>
<path d="M46.5977 39.6892C46.9267 39.1026 46.2686 38.6579 45.8423 38.3115L45.6289 38.7383C45.8329 39.157 46.1749 39.4932 46.5977 39.6892L46.5977 39.6892Z" fill="white"/>
<path d="M46.616 62.5154C46.4509 62.7337 46.2995 62.9623 46.1625 63.1998C45.9942 63.5601 45.9964 63.9766 46.1687 64.3351C46.341 64.6936 46.6652 64.9556 47.0513 65.0489C47.3732 65.2886 47.7384 65.4636 48.1272 65.5641C47.7268 65.3444 47.3781 65.0413 47.1049 64.6753C47.0397 64.5373 46.9656 64.4038 46.8826 64.2753C46.7701 63.9199 46.7723 63.5382 46.8888 63.1842C47.0053 62.8302 47.2303 62.5212 47.5317 62.302C48.154 61.7154 48.4205 62.2043 48.625 62.8444C48.1719 62.9462 47.8107 63.2869 47.6826 63.7333C47.2384 65.0489 50.0737 66.0265 50.1893 63.9998C50.2152 63.8377 50.2152 63.673 50.1893 63.511C50.3674 63.5351 50.5246 63.6386 50.6179 63.7922C50.7112 63.9458 50.7299 64.1328 50.6692 64.302C50.5715 64.9154 49.7804 65.2529 49.7804 65.8489C50.3759 65.2623 52.216 63.9556 51.7715 62.9957L51.7715 62.9953C51.7487 62.9466 51.7188 62.902 51.6826 62.8618C51.2692 62.1917 50.6657 61.6595 49.9496 61.3332C49.6969 61.1247 49.3889 60.9953 49.063 60.9605C48.7375 60.9256 48.409 60.9873 48.1184 61.1377L48.3407 60.9243C47.576 61.2024 46.955 61.7756 46.6161 62.5154L46.616 62.5154Z" fill="white"/>
</g>
<defs>
<clipPath id="clip0_52_1124">
<rect width="80" height="63" fill="white" transform="translate(0 80) rotate(-90)"/>
</clipPath>
</defs>
</svg>
